<svg width="25" height="25" viewBox="0 0 25 25" fill="none" xmlns="http://www.w3.org/2000/svg">
<path d="M20.0844 18.9785C20.157 19.051 20.2146 19.1372 20.2539 19.2321C20.2931 19.3269 20.3134 19.4285 20.3134 19.5312C20.3134 19.6338 20.2931 19.7355 20.2539 19.8303C20.2146 19.9252 20.157 20.0113 20.0844 20.0839C20.0118 20.1565 19.9257 20.2141 19.8308 20.2534C19.736 20.2927 19.6343 20.3129 19.5317 20.3129C19.429 20.3129 19.3274 20.2927 19.2325 20.2534C19.1377 20.2141 19.0515 20.1565 18.979 20.0839L12.5004 13.6044L6.02192 20.0839C5.87532 20.2305 5.6765 20.3129 5.46918 20.3129C5.26187 20.3129 5.06304 20.2305 4.91645 20.0839C4.76986 19.9373 4.6875 19.7385 4.6875 19.5312C4.6875 19.3239 4.76986 19.1251 4.91645 18.9785L11.3959 12.4999L4.91645 6.02143C4.76986 5.87484 4.6875 5.67601 4.6875 5.4687C4.6875 5.26138 4.76986 5.06256 4.91645 4.91596C5.06304 4.76937 5.26187 4.68701 5.46918 4.68701C5.6765 4.68701 5.87532 4.76937 6.02192 4.91596L12.5004 11.3955L18.979 4.91596C19.1255 4.76937 19.3244 4.68701 19.5317 4.68701C19.739 4.68701 19.9378 4.76937 20.0844 4.91596C20.231 5.06256 20.3134 5.26138 20.3134 5.4687C20.3134 5.67601 20.231 5.87484 20.0844 6.02143L13.6049 12.4999L20.0844 18.9785Z" fill="black"/>
</svg>
